<?xml version="1.0" encoding="UTF-8"?>
<!DOCTYPE svg PUBLIC "-//W3C//DTD SVG 1.1//EN" "http://www.w3.org/Graphics/SVG/1.1/DTD/svg11.dtd">
<svg xmlns="http://www.w3.org/2000/svg" version="1.1" width="300px" height="120px" style="shape-rendering:geometricPrecision; text-rendering:geometricPrecision; image-rendering:optimizeQuality; fill-rule:evenodd; clip-rule:evenodd" xmlns:xlink="http://www.w3.org/1999/xlink">
<g><path style="opacity:1" fill="#fb923c" d="M 58.5,66.5 C 56.3652,66.853 55.0319,66.0197 54.5,64C 55.53,61.4398 56.6966,58.9398 58,56.5C 67.5427,41.6278 78.5427,27.9612 91,15.5C 92.9989,18.1469 94.9989,20.8135 97,23.5C 102.484,16.7091 108.317,10.2091 114.5,4C 115.793,3.50999 117.127,3.34332 118.5,3.5C 112.967,14.8914 106.634,25.8914 99.5,36.5C 98.5617,37.5529 97.395,38.2196 96,38.5C 93.4911,37.1712 91.6578,35.1712 90.5,32.5C 89.5,31.1667 88.5,31.1667 87.5,32.5C 79.1332,42.5456 70.2999,52.2123 61,61.5C 59.9055,63.0779 59.0722,64.7446 58.5,66.5 Z"/></g>
<g><path style="opacity:0.999" fill="#fb923c" d="M 269.5,10.5 C 270.995,10.4148 271.995,11.0815 272.5,12.5C 266.932,23.5545 260.766,34.2212 254,44.5C 253,43.8333 252,43.1667 251,42.5C 250.767,40.2199 249.934,38.2199 248.5,36.5C 241.961,42.54 235.628,48.7067 229.5,55C 227.763,55.6123 226.763,54.9457 226.5,53C 231.596,44.9004 237.096,37.0671 243,29.5C 245.714,26.4489 248.714,23.7822 252,21.5C 254.303,22.7507 255.636,24.7507 256,27.5C 260.508,21.803 265.008,16.1363 269.5,10.5 Z"/></g>
<g><path style="opacity:0.829" fill="#ca5802cf" d="M 31.5,16.5 C 32.5,16.5 33.5,16.5 34.5,16.5C 35.545,22.6469 36.545,28.8136 37.5,35C 36.3662,40.3729 33.3662,41.7062 28.5,39C 26.3268,37.1353 25.9934,34.9686 27.5,32.5C 29.3885,31.396 31.0552,30.0627 32.5,28.5C 31.5672,24.5705 31.2338,20.5705 31.5,16.5 Z M 31.5,33.5 C 32.7759,34.3864 32.7759,35.3864 31.5,36.5C 30.4376,35.5754 30.4376,34.5754 31.5,33.5 Z"/></g>
<g><path style="opacity:0.993" fill="#ca5802cf" d="M 175.5,3.5 C 176.995,3.41483 177.995,4.08149 178.5,5.5C 175.696,10.136 172.696,14.636 169.5,19C 166.169,18.7486 163.336,17.2486 161,14.5C 155.148,20.3843 149.648,26.5509 144.5,33C 142.926,33.6987 141.593,33.3654 140.5,32C 146.126,24.7055 152.126,17.7055 158.5,11C 161.596,10.0733 163.93,11.0733 165.5,14C 166.5,14.6667 167.5,14.6667 168.5,14C 170.72,10.3854 173.053,6.88538 175.5,3.5 Z"/></g>
<g><path style="opacity:0.988" fill="#ca5802cf" d="M 55.5,19.5 C 57.604,19.2011 59.604,19.5344 61.5,20.5C 58.028,23.5968 54.028,25.4301 49.5,26C 48.5494,25.2825 48.3828,24.4491 49,23.5C 51.3143,22.2668 53.4809,20.9334 55.5,19.5 Z"/></g>
<g><path style="opacity:1" fill="#ca5802cf" d="M 282.5,28.5 C 284.911,28.1367 286.411,29.1367 287,31.5C 288.423,37.1895 288.923,42.8562 288.5,48.5C 286.044,51.0801 283.544,51.0801 281,48.5C 279.925,45.4691 280.925,43.4691 284,42.5C 284.798,40.7412 284.631,39.0745 283.5,37.5C 275.909,39.839 273.242,44.839 275.5,52.5C 272.444,59.1425 269.444,59.1425 266.5,52.5C 266.981,49.6857 268.648,48.3524 271.5,48.5C 271.334,43.8215 271.501,39.1548 272,34.5C 275.644,32.5993 279.144,30.5993 282.5,28.5 Z"/></g>
<g><path style="opacity:0.917" fill="#080808" d="M 129.5,119.5 C 128.5,119.5 127.5,119.5 126.5,119.5C 126.702,117.011 126.202,114.677 125,112.5C 119.313,109.333 115.813,104.667 114.5,98.5C 117.579,98.2601 120.579,98.5934 123.5,99.5C 124.748,96.4937 124.748,93.4937 123.5,90.5C 109.253,87.4485 108.92,83.4485 122.5,78.5C 122.407,72.4836 122.074,66.4836 121.5,60.5C 114.496,60.7731 107.496,61.1064 100.5,61.5C 98.2561,66.1335 99.4228,69.4668 104,71.5C 106.176,76.5157 104.843,80.5157 100,83.5C 99.3029,89.5368 99.4696,95.5368 100.5,101.5C 108.687,102.793 110.353,106.627 105.5,113C 103.975,114.009 102.308,114.509 100.5,114.5C 100.5,116.167 100.5,117.833 100.5,119.5C 99.1667,119.5 97.8333,119.5 96.5,119.5C 96.3231,114.134 96.6564,108.8 97.5,103.5C 95.0017,89.5938 95.0017,75.9271 97.5,62.5C 96.4189,56.5319 96.2522,50.5319 97,44.5C 98.8684,43.3281 100.702,43.4947 102.5,45C 104.667,47.1667 106.833,49.3333 109,51.5C 111.729,47.1024 115.396,43.7691 120,41.5C 120.945,41.9054 121.612,42.572 122,43.5C 124.655,68.8232 127.155,94.1565 129.5,119.5 Z"/></g>
<g><path style="opacity:0.894" fill="#110d08" d="M 187.5,119.5 C 182.833,119.5 178.167,119.5 173.5,119.5C 175.028,105.469 177.028,91.4694 179.5,77.5C 177.139,77.6741 174.806,78.0074 172.5,78.5C 172.351,77.448 172.517,76.448 173,75.5C 175.256,72.2703 177.423,69.1037 179.5,66C 177.805,61.2958 175.639,56.7958 173,52.5C 173.038,48.8451 173.205,45.3451 173.5,42C 176.436,42.8931 178.936,44.7264 181,47.5C 182.667,50.1667 184.333,52.8333 186,55.5C 186.678,48.9251 189.511,43.5918 194.5,39.5C 195.353,41.9355 196.353,44.2688 197.5,46.5C 196.554,50.1656 196.054,53.8323 196,57.5C 201.861,53.2399 207.861,49.2399 214,45.5C 215.365,46.5929 215.699,47.9262 215,49.5C 213.171,51.1558 211.837,53.1558 211,55.5C 205.327,60.0684 199.827,64.735 194.5,69.5C 190.72,85.965 188.387,102.632 187.5,119.5 Z"/></g>
<g><path style="opacity:0.907" fill="#151310" d="M 168.5,119.5 C 167.5,119.5 166.5,119.5 165.5,119.5C 166.043,93.4837 166.043,67.4837 165.5,41.5C 164.167,41.5 162.833,41.5 161.5,41.5C 161.313,46.8446 160.98,52.1779 160.5,57.5C 159.448,57.6495 158.448,57.4828 157.5,57C 158.524,55.6329 158.024,54.7995 156,54.5C 154.72,54.6135 153.887,55.2801 153.5,56.5C 157.075,58.0704 160.408,60.0704 163.5,62.5C 164.833,63.1667 164.833,63.8333 163.5,64.5C 160.961,62.7997 158.295,61.2997 155.5,60C 154.056,59.2195 152.723,59.3861 151.5,60.5C 153.68,63.9255 156.347,66.9255 159.5,69.5C 156.801,71.8981 155.467,74.8981 155.5,78.5C 152.956,78.8957 150.789,78.229 149,76.5C 148.312,75.6683 148.479,75.0016 149.5,74.5C 150.5,75.1667 151.5,75.8333 152.5,76.5C 153.895,74.081 153.395,72.081 151,70.5C 149.54,73.2098 147.54,73.8765 145,72.5C 144.065,66.1518 143.065,59.8185 142,53.5C 139.938,51.0993 138.271,48.4326 137,45.5C 136,44.1667 135,44.1667 134,45.5C 137.914,57.1742 140.914,69.1742 143,81.5C 143.899,94.1529 144.399,106.82 144.5,119.5C 143.5,119.5 142.5,119.5 141.5,119.5C 140.875,110.635 140.208,101.802 139.5,93C 139.248,90.1482 139.582,87.1482 140.5,84C 137.799,76.7692 136.299,69.2692 136,61.5C 132.834,56.196 131.167,50.5294 131,44.5C 132.808,42.6041 134.975,42.1041 137.5,43C 140.572,45.8086 142.905,49.1419 144.5,53C 148.848,53.4155 153.181,53.2488 157.5,52.5C 157.166,47.6738 158.166,43.1738 160.5,39C 164.542,37.3076 167.042,38.8076 168,43.5C 168.364,53.0077 168.864,62.5077 169.5,72C 168.606,87.8196 168.273,103.653 168.5,119.5 Z"/></g>
<g><path style="opacity:0.678" fill="#c56730" d="M 190.5,48.5 C 191.5,48.5 192.5,48.5 193.5,48.5C 193.354,53.4211 192.354,53.4211 190.5,48.5 Z"/></g>
<g><path style="opacity:0.821" fill="#ca5802cf" d="M 9.5,50.5 C 11.6237,51.0312 13.1237,52.3645 14,54.5C 14.7496,58.4187 16.083,62.0854 18,65.5C 18.5379,71.5191 15.7045,73.6858 9.5,72C 5.46829,67.3596 6.46829,64.0263 12.5,62C 11.2685,58.8096 9.93512,55.643 8.5,52.5C 8.86273,51.8165 9.19607,51.1499 9.5,50.5 Z M 11.5,66.5 C 13.3547,66.272 14.1881,66.9387 14,68.5C 11.3655,69.6922 10.5322,69.0256 11.5,66.5 Z"/></g>
<g><path style="opacity:0.843" fill="#ad5e2a" d="M 176.5,50.5 C 177.978,50.238 179.311,50.5713 180.5,51.5C 179.833,51.8333 179.167,52.1667 178.5,52.5C 177.287,52.2528 176.62,51.5862 176.5,50.5 Z"/></g>
<g><path style="opacity:0.658" fill="#eb7837" d="M 189.5,53.5 C 191.728,54.3218 192.395,55.6552 191.5,57.5C 189.889,56.6798 189.222,55.3464 189.5,53.5 Z"/></g>
<g><path style="opacity:1" fill="#9d5224" d="M 178.5,53.5 C 179.833,53.5 181.167,53.5 182.5,53.5C 182.5,54.8333 182.5,56.1667 182.5,57.5C 179.858,57.5123 178.525,56.179 178.5,53.5 Z"/></g>
<g><path style="opacity:0.765" fill="#b46733" d="M 203.5,54.5 C 204.797,55.8488 204.63,57.1821 203,58.5C 202.421,57.0715 202.588,55.7382 203.5,54.5 Z"/></g>
<g><path style="opacity:0.961" fill="#ca5802cf" d="M 32.5,53.5 C 36.3273,53.4401 36.994,54.6068 34.5,57C 31.4103,58.3634 28.2436,59.53 25,60.5C 23.9412,60.3699 23.1079,59.8699 22.5,59C 25.9492,57.2507 29.2826,55.4174 32.5,53.5 Z"/></g>
<g><path style="opacity:1" fill="#f6f6f6" d="M 126.5,119.5 C 117.833,119.5 109.167,119.5 100.5,119.5C 100.5,117.833 100.5,116.167 100.5,114.5C 102.308,114.509 103.975,114.009 105.5,113C 110.353,106.627 108.687,102.793 100.5,101.5C 99.4696,95.5368 99.3029,89.5368 100,83.5C 104.843,80.5157 106.176,76.5157 104,71.5C 99.4228,69.4668 98.2561,66.1335 100.5,61.5C 107.496,61.1064 114.496,60.7731 121.5,60.5C 122.074,66.4836 122.407,72.4836 122.5,78.5C 108.92,83.4485 109.253,87.4485 123.5,90.5C 124.748,93.4937 124.748,96.4937 123.5,99.5C 120.579,98.5934 117.579,98.2601 114.5,98.5C 115.813,104.667 119.313,109.333 125,112.5C 126.202,114.677 126.702,117.011 126.5,119.5 Z"/></g>
<g><path style="opacity:1" fill="#f8e6a4" d="M 165.5,119.5 C 158.5,119.5 151.5,119.5 144.5,119.5C 144.399,106.82 143.899,94.1529 143,81.5C 140.914,69.1742 137.914,57.1742 134,45.5C 135,44.1667 136,44.1667 137,45.5C 138.271,48.4326 139.938,51.0993 142,53.5C 143.065,59.8185 144.065,66.1518 145,72.5C 147.54,73.8765 149.54,73.2098 151,70.5C 153.395,72.081 153.895,74.081 152.5,76.5C 151.5,75.8333 150.5,75.1667 149.5,74.5C 148.479,75.0016 148.312,75.6683 149,76.5C 150.789,78.229 152.956,78.8957 155.5,78.5C 155.467,74.8981 156.801,71.8981 159.5,69.5C 156.347,66.9255 153.68,63.9255 151.5,60.5C 152.723,59.3861 154.056,59.2195 155.5,60C 158.295,61.2997 160.961,62.7997 163.5,64.5C 164.833,63.8333 164.833,63.1667 163.5,62.5C 160.408,60.0704 157.075,58.0704 153.5,56.5C 153.887,55.2801 154.72,54.6135 156,54.5C 158.024,54.7995 158.524,55.6329 157.5,57C 158.448,57.4828 159.448,57.6495 160.5,57.5C 160.98,52.1779 161.313,46.8446 161.5,41.5C 162.833,41.5 164.167,41.5 165.5,41.5C 166.043,67.4837 166.043,93.4837 165.5,119.5 Z"/></g>
<g><path style="opacity:0.998" fill="#dfcf95" d="M 146.5,55.5 C 147.5,55.5 148.5,55.5 149.5,55.5C 149.533,59.8689 149.2,64.2022 148.5,68.5C 147.5,68.5 146.5,68.5 145.5,68.5C 145.231,64.0685 145.564,59.7352 146.5,55.5 Z"/></g>
<g><path style="opacity:0.78" fill="#e57534" d="M 181.5,61.5 C 185.908,60.1498 189.241,61.6498 191.5,66C 187.868,65.3542 184.535,63.8542 181.5,61.5 Z"/></g>
<g><path style="opacity:0.569" fill="#e67633" d="M 192.5,62.5 C 194.337,62.6395 194.67,63.3061 193.5,64.5C 192.702,64.0431 192.369,63.3764 192.5,62.5 Z"/></g>
<g><path style="opacity:0.004" fill="#fe0000" d="M 61.5,65.5 C 62.8333,66.1667 62.8333,66.1667 61.5,65.5 Z"/></g>
<g><path style="opacity:0.004" fill="#ba1808" d="M 58.5,66.5 C 59.5,66.5 60.5,66.5 61.5,66.5C 60.5,67.8333 59.5,67.8333 58.5,66.5 Z"/></g>
<g><path style="opacity:0.936" fill="#111110" d="M 240.5,119.5 C 239.167,119.5 237.833,119.5 236.5,119.5C 237.547,107.199 238.381,94.8659 239,82.5C 242.912,79.5277 245.746,75.6944 247.5,71C 247.241,69.7387 246.574,68.7387 245.5,68C 242.167,67.6667 238.833,67.3333 235.5,67C 233.316,64.6321 230.649,63.9654 227.5,65C 226.315,66.353 224.981,67.5197 223.5,68.5C 216.24,64.392 213.406,66.392 215,74.5C 216.471,77.1008 217.637,79.7675 218.5,82.5C 216.265,94.7805 215.598,107.114 216.5,119.5C 215.167,119.5 213.833,119.5 212.5,119.5C 212.257,106.674 213.257,94.174 215.5,82C 212.392,77.9691 210.892,73.4691 211,68.5C 213.712,64.0954 217.545,62.7621 222.5,64.5C 227.14,60.8296 231.807,60.6629 236.5,64C 251.953,65.3557 254.119,71.5223 243,82.5C 241.625,94.7916 240.792,107.125 240.5,119.5 Z"/></g>
<g><path style="opacity:1" fill="#c2bfc0" d="M 236.5,119.5 C 229.833,119.5 223.167,119.5 216.5,119.5C 215.598,107.114 216.265,94.7805 218.5,82.5C 217.637,79.7675 216.471,77.1008 215,74.5C 213.406,66.392 216.24,64.392 223.5,68.5C 224.981,67.5197 226.315,66.353 227.5,65C 230.649,63.9654 233.316,64.6321 235.5,67C 238.833,67.3333 242.167,67.6667 245.5,68C 246.574,68.7387 247.241,69.7387 247.5,71C 245.746,75.6944 242.912,79.5277 239,82.5C 238.381,94.8659 237.547,107.199 236.5,119.5 Z"/></g>
<g><path style="opacity:1" fill="#d5c692" d="M 152.5,66.5 C 157.421,68.3536 157.421,69.3536 152.5,69.5C 152.5,68.5 152.5,67.5 152.5,66.5 Z"/></g>
<g><path style="opacity:0.541" fill="#c7672f" d="M 184.5,66.5 C 187.897,66.7372 189.73,68.4039 190,71.5C 186.913,67.6513 184.08,67.9846 181.5,72.5C 181.167,72.1667 180.833,71.8333 180.5,71.5C 181.953,69.8152 183.286,68.1486 184.5,66.5 Z"/></g>
<g><path style="opacity:0.82" fill="#ca5802cf" d="M 69.5,67.5 C 72.1878,68.0241 73.6878,69.6908 74,72.5C 75.748,78.0627 76.4147,83.7294 76,89.5C 69.574,92.7475 66.574,90.7475 67,83.5C 71.8266,82.0235 72.6599,79.3569 69.5,75.5C 66.5499,76.4877 63.5499,77.321 60.5,78C 59.4844,78.5194 58.8178,79.3527 58.5,80.5C 59.7615,85.0512 61.0949,89.5512 62.5,94C 59.1322,97.9572 55.2989,98.4572 51,95.5C 49.3486,90.8408 50.8486,88.1742 55.5,87.5C 55.4249,84.7938 55.0916,82.1272 54.5,79.5C 51.6848,78.7711 49.6848,77.7711 48.5,76.5C 48.3601,74.8762 49.0267,73.7096 50.5,73C 56.8438,70.7357 63.1771,68.9024 69.5,67.5 Z M 63.5,73.5 C 64.9425,72.2973 66.6092,71.7973 68.5,72C 67.0953,73.2692 65.4286,73.7692 63.5,73.5 Z"/></g>
<g><path style="opacity:1" fill="#fbafc6" d="M 224.5,72.5 C 228.182,72.3347 231.848,72.5014 235.5,73C 238.167,75 238.167,77 235.5,79C 231.823,79.718 228.157,80.0514 224.5,80C 223.313,78.9805 222.313,77.8139 221.5,76.5C 222.524,75.1482 223.524,73.8149 224.5,72.5 Z"/></g>
<g><path style="opacity:0.11" fill="#e47534" d="M 185.5,71.5 C 187.645,71.7377 189.312,72.7377 190.5,74.5C 187.904,75.3614 186.237,74.3614 185.5,71.5 Z"/></g>
<g><path style="opacity:0.367" fill="#f07b37" d="M 183.5,77.5 C 185.885,76.332 187.885,76.9987 189.5,79.5C 189,79.8333 188.5,80.1667 188,80.5C 186.357,79.6854 184.857,78.6854 183.5,77.5 Z"/></g>
<g><path style="opacity:0.757" fill="#ec7837" d="M 182.5,81.5 C 182.897,80.475 183.563,80.3083 184.5,81C 186.329,82.1133 187.163,83.6133 187,85.5C 185.629,83.9586 184.129,82.6253 182.5,81.5 Z"/></g>
<g><path style="opacity:0.357" fill="#e57534" d="M 181.5,86.5 C 181.897,85.475 182.563,85.3083 183.5,86C 184.833,87.3333 186.167,88.6667 187.5,90C 186.833,90.6667 186.167,90.6667 185.5,90C 184.295,88.6244 182.962,87.4577 181.5,86.5 Z"/></g>
<g><path style="opacity:0.514" fill="#ec7937" d="M 180.5,91.5 C 180.56,90.9569 180.893,90.6236 181.5,90.5C 182.7,91.5312 184.034,92.3645 185.5,93C 186.517,94.0495 186.684,95.2161 186,96.5C 184.296,94.6266 182.463,92.9599 180.5,91.5 Z"/></g>
<g><path style="opacity:0.378" fill="#df7234" d="M 185.5,102.5 C 183.26,101.432 181.426,99.7658 180,97.5C 179.312,96.6683 179.479,96.0016 180.5,95.5C 183.39,97.0429 185.057,99.3762 185.5,102.5 Z"/></g>
<g><path style="opacity:0.559" fill="#ca5802cf" d="M 72.5,96.5 C 77.3845,96.8964 77.7178,98.3964 73.5,101C 63.3609,105.739 53.0276,109.906 42.5,113.5C 42.5608,110.95 43.8941,109.45 46.5,109C 42.7188,108.633 42.0522,107.3 44.5,105C 48.6194,103.441 52.6194,101.607 56.5,99.5C 58.4879,100.289 58.8213,101.455 57.5,103C 62.9441,101.947 67.9441,99.7801 72.5,96.5 Z"/></g>
<g><path style="opacity:1" fill="#894821" d="M 179.5,101.5 C 184.052,102.842 185.719,105.675 184.5,110C 185.167,110.667 185.833,111.333 186.5,112C 183.722,110.471 181.055,109.138 178.5,108C 179.572,106.716 180.905,106.383 182.5,107C 180.393,105.736 179.393,103.903 179.5,101.5 Z"/></g>
<g><path style="opacity:0.643" fill="#dc7133" d="M 178.5,112.5 C 180.69,113.802 182.69,115.469 184.5,117.5C 184.167,117.833 183.833,118.167 183.5,118.5C 180.467,117.518 178.8,115.518 178.5,112.5 Z"/></g>
</svg>
